# File created by Blade
# Date/Time:  Thu Jan 22 16:00:44 2015
# Frame Rate: 120.000 fps
#------------------------------------------------------
:FULLY-SPECIFIED
:DEGREES
2011
root 1.389352 37.101438 7.823478 4.602287 -6.820299 1.085431
RightUpLeg 6.801815 1.544967 -2.506824
RightLeg -7.701489 -0.000000 0.000000
RightFoot -8.801212 -6.581105 17.394690
RightToeBase 13.084679 -0.000000 -0.000000
LeftUpLeg 5.244635 7.561002 5.294092
LeftLeg -3.735941 -0.000000 0.000000
LeftFoot -6.661907 8.074690 -20.454507
LeftToeBase 6.431667 -0.000000 -0.000000
Spine -9.754208 5.146954 -4.444519
RightShoulder 9.918463 -33.677273 -13.307781
RightArm 127.558219 -52.806984 -35.854008
RightForeArm -37.801348 -0.000000 121.730352
RightHand 34.652302 -0.000000 -19.188483
RightHandThumb1 -24.326973 -0.000000 -32.862282
LeftShoulder -19.253540 9.754852 28.080003
LeftArm 178.418561 -33.067312 -108.820777
LeftForeArm -24.442502 -0.000000 151.380832
LeftHand -4.465442 0.000000 0.281287
LeftHandThumb1 -26.253704 0.000000 33.147579
Head 33.967947 -3.354505 4.046986
2012
root 1.397268 37.102205 7.823439 4.593880 -6.786616 1.097688
RightUpLeg 6.811790 1.547834 -2.527165
RightLeg -7.697241 -0.000000 0.000000
RightFoot -8.851739 -6.590470 17.466545
RightToeBase 13.248460 -0.000000 -0.000000
LeftUpLeg 5.247125 7.514621 5.270664
LeftLeg -3.743896 -0.000000 0.000000
LeftFoot -6.655387 8.088103 -20.458511
LeftToeBase 6.437890 -0.000000 -0.000000
Spine -9.764055 5.136336 -4.409431
RightShoulder 9.951884 -33.641679 -13.320028
RightArm 127.586058 -52.815788 -35.889688
RightForeArm -37.807961 -0.000000 121.745632
RightHand 34.610049 -0.000000 -19.236440
RightHandThumb1 -24.326973 -0.000000 -32.862282
LeftShoulder -19.288914 9.794248 28.066092
LeftArm 178.464325 -33.035551 -108.832299
LeftForeArm -24.366334 -0.000000 151.378181
LeftHand -4.534815 -0.000000 0.262036
LeftHandThumb1 -26.253704 0.000000 33.147579
Head 33.932338 -3.341931 4.040002
2013
root 1.405557 37.102837 7.824013 4.576250 -6.751337 1.113563
RightUpLeg 6.829220 1.513195 -2.547471
RightLeg -7.694988 -0.000000 0.000000
RightFoot -8.813776 -6.636268 17.386325
RightToeBase 13.079388 -0.000000 -0.000000
LeftUpLeg 5.259498 7.477299 5.245808
LeftLeg -3.752216 -0.000000 0.000000
LeftFoot -6.647123 8.092516 -20.456412
LeftToeBase 6.442690 -0.000000 -0.000000
Spine -9.766593 5.128708 -4.371538
RightShoulder 9.992727 -33.629339 -13.350187
RightArm 127.571993 -52.809046 -35.876708
RightForeArm -37.773137 -0.000000 121.754491
RightHand 34.575786 -0.000000 -19.273516
RightHandThumb1 -24.326973 -0.000000 -32.862282
LeftShoulder -19.314614 9.827496 28.051595
LeftArm 178.488543 -33.034008 -108.837376
LeftForeArm -24.341560 -0.000000 151.381931
LeftHand -4.476010 0.000000 0.012661
LeftHandThumb1 -26.253704 0.000000 33.147579
Head 33.902850 -3.311789 4.027660
2014
root 1.413766 37.103180 7.824141 4.565495 -6.718892 1.128404
RightUpLeg 6.840942 1.508837 -2.569061
RightLeg -7.691742 -0.000000 0.000000
RightFoot -8.838103 -6.667748 17.389900
RightToeBase 13.108118 -0.000000 -0.000000
LeftUpLeg 5.261646 7.460389 5.221890
LeftLeg -3.754952 -0.000000 0.000000
LeftFoot -6.640933 8.085358 -20.434546
LeftToeBase 6.429868 -0.000000 -0.000000
Spine -9.773084 5.117553 -4.337390
RightShoulder 10.021093 -33.577289 -13.357493
RightArm 127.597985 -52.833675 -35.904690
RightForeArm -37.788477 0.000000 121.768642
RightHand 34.521360 -0.000000 -19.313359
RightHandThumb1 -24.326973 -0.000000 -32.862282
LeftShoulder -19.365307 9.874320 28.044273
LeftArm 178.508787 -33.013533 -108.840652
LeftForeArm -24.302924 -0.000000 151.396280
LeftHand -4.427485 -0.000000 -0.022281
LeftHandThumb1 -26.253704 0.000000 33.147579
Head 33.866934 -3.310087 4.004661
2015
root 1.421833 37.103975 7.824194 4.553898 -6.675013 1.144357
RightUpLeg 6.855444 1.491658 -2.591546
RightLeg -7.687524 -0.000000 0.000000
RightFoot -8.850706 -6.683496 17.425549
RightToeBase 13.130257 -0.000000 -0.000000
LeftUpLeg 5.259367 7.423651 5.196230
LeftLeg -3.751724 -0.000000 0.000000
LeftFoot -6.637606 8.080974 -20.422046
LeftToeBase 6.464136 -0.000000 -0.000000
Spine -9.781254 5.110955 -4.298587
RightShoulder 10.051568 -33.571322 -13.381213
RightArm 127.579513 -52.823664 -35.883244
RightForeArm -37.788824 -0.000000 121.768396
RightHand 34.482672 -0.000000 -19.363716
RightHandThumb1 -24.326973 -0.000000 -32.862282
LeftShoulder -19.387033 9.910017 28.032875
LeftArm 178.550793 -33.021164 -108.864554
LeftForeArm -24.263350 -0.000000 151.414669
LeftHand -4.454189 -0.000000 0.021030
LeftHandThumb1 -26.253704 0.000000 33.147579
Head 33.827565 -3.283169 4.006392
2016
root 1.430209 37.104390 7.824383 4.541151 -6.632131 1.158121
RightUpLeg 6.872200 1.474394 -2.611577
RightLeg -7.691678 -0.000000 0.000000
RightFoot -8.855029 -6.716280 17.425790
RightToeBase 13.125373 -0.000000 -0.000000
LeftUpLeg 5.257977 7.395010 5.174760
LeftLeg -3.748888 -0.000000 0.000000
LeftFoot -6.609057 8.058875 -20.484017
LeftToeBase 6.316105 -0.000000 -0.000000
Spine -9.785548 5.092344 -4.257915
RightShoulder 10.088284 -33.553645 -13.409801
RightArm 127.572030 -52.824181 -35.874654
RightForeArm -37.816004 -0.000000 121.771368
RightHand 34.445676 -0.000000 -19.412929
RightHandThumb1 -24.326973 -0.000000 -32.862282
LeftShoulder -19.409725 9.938113 28.025701
LeftArm 178.599706 -33.052885 -108.881429
LeftForeArm -24.156915 -0.000000 151.415438
LeftHand -4.563323 -0.000000 0.443842
LeftHandThumb1 -26.253704 0.000000 33.147579
Head 33.787335 -3.266701 3.987973
2017
root 1.438342 37.104808 7.825274 4.532615 -6.580978 1.171966
RightUpLeg 6.887422 1.443311 -2.632613
RightLeg -7.690678 -0.000000 0.000000
RightFoot -8.862300 -6.731270 17.424709
RightToeBase 13.150248 -0.000000 -0.000000
LeftUpLeg 5.253433 7.346150 5.150363
LeftLeg -3.744592 -0.000000 0.000000
LeftFoot -6.627568 8.074628 -20.410807
LeftToeBase 6.451366 -0.000000 -0.000000
Spine -9.796084 5.070647 -4.217907
RightShoulder 10.115795 -33.541013 -13.426414
RightArm 127.578619 -52.820751 -35.878441
RightForeArm -37.788398 -0.000000 121.763561
RightHand 34.418345 -0.000000 -19.447093
RightHandThumb1 -24.326973 -0.000000 -32.862282
LeftShoulder -19.436044 9.968069 28.014999
LeftArm 178.640994 -33.080280 -108.890995
LeftForeArm -24.152303 0.000000 151.413230
LeftHand -4.551610 -0.000000 0.462649
LeftHandThumb1 -26.253704 0.000000 33.147579
Head 33.754759 -3.242937 3.967485
2018
root 1.446881 37.105193 7.826201 4.523758 -6.529361 1.185754
RightUpLeg 6.908453 1.444406 -2.655025
RightLeg -7.699656 -0.000000 0.000000
RightFoot -8.878245 -6.763832 17.446132
RightToeBase 13.119883 -0.000000 -0.000000
LeftUpLeg 5.248012 7.312030 5.127642
LeftLeg -3.739978 -0.000000 0.000000
LeftFoot -6.618841 8.065007 -20.380367
LeftToeBase 6.430976 -0.000000 -0.000000
Spine -9.803753 5.045171 -4.175499
RightShoulder 10.154595 -33.514875 -13.447418
RightArm 127.578298 -52.834885 -35.882769
RightForeArm -37.786707 -0.000000 121.765555
RightHand 34.380607 -0.000000 -19.489275
RightHandThumb1 -24.326973 -0.000000 -32.862282
LeftShoulder -19.474931 9.995819 28.001510
LeftArm 178.666560 -33.092034 -108.892320
LeftForeArm -24.225622 0.000000 151.406898
LeftHand -4.622662 -0.000000 0.452474
LeftHandThumb1 -26.253704 0.000000 33.147579
Head 33.726241 -3.214789 3.938778
2019
root 1.454270 37.105806 7.826951 4.511657 -6.478946 1.195968
RightUpLeg 6.926824 1.422930 -2.670643
RightLeg -7.697683 -0.000000 0.000000
RightFoot -8.885677 -6.788376 17.453485
RightToeBase 13.115140 -0.000000 -0.000000
LeftUpLeg 5.246979 7.275257 5.110697
LeftLeg -3.735846 -0.000000 0.000000
LeftFoot -6.618961 8.053059 -20.372857
LeftToeBase 6.405250 -0.000000 -0.000000
Spine -9.806207 5.024578 -4.135758
RightShoulder 10.176401 -33.482722 -13.454060
RightArm 127.593650 -52.840022 -35.896965
RightForeArm -37.824045 -0.000000 121.760481
RightHand 34.312025 -0.000000 -19.551376
RightHandThumb1 -24.326973 -0.000000 -32.862282
LeftShoulder -19.509170 10.017257 27.993848
LeftArm 178.686363 -33.105602 -108.879020
LeftForeArm -24.246958 -0.000000 151.407564
LeftHand -4.546002 -0.000000 0.166495
LeftHandThumb1 -26.253704 0.000000 33.147579
Head 33.706175 -3.203841 3.920469
2020
root 1.461854 37.106419 7.827889 4.501855 -6.434004 1.203051
RightUpLeg 6.939232 1.397124 -2.681416
RightLeg -7.690087 -0.000000 0.000000
RightFoot -8.899594 -6.816980 17.442160
RightToeBase 13.136046 -0.000000 -0.000000
LeftUpLeg 5.245232 7.247288 5.096062
LeftLeg -3.736804 -0.000000 0.000000
LeftFoot -6.596091 8.029270 -20.446982
LeftToeBase 6.356914 -0.000000 -0.000000
Spine -9.816238 5.004603 -4.086969
RightShoulder 10.215789 -33.466034 -13.472670
RightArm 127.612267 -52.841725 -35.903666
RightForeArm -37.808079 -0.000000 121.753215
RightHand 34.297720 -0.000000 -19.630159
RightHandThumb1 -24.326973 -0.000000 -32.862282
LeftShoulder -19.551916 10.072843 27.968826
LeftArm 178.736259 -33.127578 -108.885548
LeftForeArm -24.205703 0.000000 151.412055
LeftHand -4.556345 -0.000000 0.209426
LeftHandThumb1 -26.253704 0.000000 33.147579
Head 33.688602 -3.163330 3.923107
